<mxfile host="app.diagrams.net" modified="2023-04-15T09:16:39.788Z" agent="Mozilla/5.0 (Windows NT 10.0; Win64; x64) AppleWebKit/537.36 (KHTML, like Gecko) Chrome/112.0.0.0 Safari/537.36 Edg/112.0.1722.39" etag="A7pz7G1q0dnZ7k2TwQJG" version="21.1.8" type="github">
  <diagram name="第 1 页" id="iTt4H4sXjvdGKY2ePGqB">
    <mxGraphModel dx="2150" dy="1952" grid="1" gridSize="10" guides="1" tooltips="1" connect="1" arrows="1" fold="1" page="1" pageScale="1" pageWidth="827" pageHeight="1169" math="0" shadow="0">
      <root>
        <mxCell id="0" />
        <mxCell id="1" parent="0" />
        <mxCell id="CToXAPZR03ggELZEOqqd-1" value="" style="whiteSpace=wrap;html=1;aspect=fixed;" vertex="1" parent="1">
          <mxGeometry x="-150" y="40" width="80" height="80" as="geometry" />
        </mxCell>
        <mxCell id="CToXAPZR03ggELZEOqqd-2" value="&#xa;&lt;span style=&quot;color: rgb(0, 0, 0); font-family: Helvetica; font-size: 12px; font-style: normal; font-variant-ligatures: normal; font-variant-caps: normal; font-weight: 400; letter-spacing: normal; orphans: 2; text-align: center; text-indent: 0px; text-transform: none; widows: 2; word-spacing: 0px; -webkit-text-stroke-width: 0px; background-color: rgb(251, 251, 251); text-decoration-thickness: initial; text-decoration-style: initial; text-decoration-color: initial; float: none; display: inline !important;&quot;&gt;dense&lt;/span&gt;&#xa;&#xa;" style="rounded=0;whiteSpace=wrap;html=1;" vertex="1" parent="1">
          <mxGeometry x="-30" y="40" width="30" height="80" as="geometry" />
        </mxCell>
        <mxCell id="CToXAPZR03ggELZEOqqd-3" value="&#xa;&lt;span style=&quot;color: rgb(0, 0, 0); font-family: Helvetica; font-size: 12px; font-style: normal; font-variant-ligatures: normal; font-variant-caps: normal; font-weight: 400; letter-spacing: normal; orphans: 2; text-align: center; text-indent: 0px; text-transform: none; widows: 2; word-spacing: 0px; -webkit-text-stroke-width: 0px; background-color: rgb(251, 251, 251); text-decoration-thickness: initial; text-decoration-style: initial; text-decoration-color: initial; float: none; display: inline !important;&quot;&gt;dense&lt;/span&gt;&#xa;&#xa;" style="rounded=0;whiteSpace=wrap;html=1;" vertex="1" parent="1">
          <mxGeometry x="40" y="40" width="30" height="80" as="geometry" />
        </mxCell>
        <mxCell id="CToXAPZR03ggELZEOqqd-4" value="&#xa;&lt;span style=&quot;color: rgb(0, 0, 0); font-family: Helvetica; font-size: 12px; font-style: normal; font-variant-ligatures: normal; font-variant-caps: normal; font-weight: 400; letter-spacing: normal; orphans: 2; text-align: center; text-indent: 0px; text-transform: none; widows: 2; word-spacing: 0px; -webkit-text-stroke-width: 0px; background-color: rgb(251, 251, 251); text-decoration-thickness: initial; text-decoration-style: initial; text-decoration-color: initial; float: none; display: inline !important;&quot;&gt;dense&lt;/span&gt;&#xa;&#xa;" style="rounded=0;whiteSpace=wrap;html=1;" vertex="1" parent="1">
          <mxGeometry x="100" y="40" width="30" height="80" as="geometry" />
        </mxCell>
        <mxCell id="CToXAPZR03ggELZEOqqd-5" value="&#xa;&lt;span style=&quot;color: rgb(0, 0, 0); font-family: Helvetica; font-size: 12px; font-style: normal; font-variant-ligatures: normal; font-variant-caps: normal; font-weight: 400; letter-spacing: normal; orphans: 2; text-align: center; text-indent: 0px; text-transform: none; widows: 2; word-spacing: 0px; -webkit-text-stroke-width: 0px; background-color: rgb(251, 251, 251); text-decoration-thickness: initial; text-decoration-style: initial; text-decoration-color: initial; float: none; display: inline !important;&quot;&gt;dense&lt;/span&gt;&#xa;&#xa;" style="rounded=0;whiteSpace=wrap;html=1;" vertex="1" parent="1">
          <mxGeometry x="160" y="40" width="30" height="80" as="geometry" />
        </mxCell>
        <mxCell id="CToXAPZR03ggELZEOqqd-6" value="&#xa;&lt;span style=&quot;color: rgb(0, 0, 0); font-family: Helvetica; font-size: 12px; font-style: normal; font-variant-ligatures: normal; font-variant-caps: normal; font-weight: 400; letter-spacing: normal; orphans: 2; text-align: center; text-indent: 0px; text-transform: none; widows: 2; word-spacing: 0px; -webkit-text-stroke-width: 0px; background-color: rgb(251, 251, 251); text-decoration-thickness: initial; text-decoration-style: initial; text-decoration-color: initial; float: none; display: inline !important;&quot;&gt;dense&lt;/span&gt;&#xa;&#xa;" style="rounded=0;whiteSpace=wrap;html=1;" vertex="1" parent="1">
          <mxGeometry x="220" y="40" width="30" height="80" as="geometry" />
        </mxCell>
        <mxCell id="CToXAPZR03ggELZEOqqd-7" value="&#xa;&lt;span style=&quot;color: rgb(0, 0, 0); font-family: Helvetica; font-size: 12px; font-style: normal; font-variant-ligatures: normal; font-variant-caps: normal; font-weight: 400; letter-spacing: normal; orphans: 2; text-align: center; text-indent: 0px; text-transform: none; widows: 2; word-spacing: 0px; -webkit-text-stroke-width: 0px; background-color: rgb(251, 251, 251); text-decoration-thickness: initial; text-decoration-style: initial; text-decoration-color: initial; float: none; display: inline !important;&quot;&gt;pooling&lt;/span&gt;&#xa;&#xa;" style="rounded=0;whiteSpace=wrap;html=1;" vertex="1" parent="1">
          <mxGeometry x="280" y="40" width="30" height="80" as="geometry" />
        </mxCell>
        <mxCell id="CToXAPZR03ggELZEOqqd-22" value="" style="rounded=0;whiteSpace=wrap;html=1;" vertex="1" parent="1">
          <mxGeometry x="320" y="130" width="30" height="80" as="geometry" />
        </mxCell>
        <mxCell id="CToXAPZR03ggELZEOqqd-27" value="up-conv" style="rounded=0;whiteSpace=wrap;html=1;" vertex="1" parent="1">
          <mxGeometry x="540" y="220" width="30" height="80" as="geometry" />
        </mxCell>
        <mxCell id="CToXAPZR03ggELZEOqqd-32" value="" style="rounded=0;whiteSpace=wrap;html=1;" vertex="1" parent="1">
          <mxGeometry x="460" y="220" width="30" height="80" as="geometry" />
        </mxCell>
        <mxCell id="CToXAPZR03ggELZEOqqd-35" value="" style="rounded=0;whiteSpace=wrap;html=1;" vertex="1" parent="1">
          <mxGeometry x="414" y="130" width="30" height="80" as="geometry" />
        </mxCell>
        <mxCell id="CToXAPZR03ggELZEOqqd-36" value="&#xa;&lt;span style=&quot;color: rgb(0, 0, 0); font-family: Helvetica; font-size: 12px; font-style: normal; font-variant-ligatures: normal; font-variant-caps: normal; font-weight: 400; letter-spacing: normal; orphans: 2; text-align: center; text-indent: 0px; text-transform: none; widows: 2; word-spacing: 0px; -webkit-text-stroke-width: 0px; background-color: rgb(251, 251, 251); text-decoration-thickness: initial; text-decoration-style: initial; text-decoration-color: initial; float: none; display: inline !important;&quot;&gt;A&lt;/span&gt;&#xa;&#xa;" style="rounded=0;whiteSpace=wrap;html=1;" vertex="1" parent="1">
          <mxGeometry x="380" y="40" width="30" height="80" as="geometry" />
        </mxCell>
        <mxCell id="CToXAPZR03ggELZEOqqd-44" value="" style="whiteSpace=wrap;html=1;aspect=fixed;" vertex="1" parent="1">
          <mxGeometry x="910" y="130" width="80" height="80" as="geometry" />
        </mxCell>
        <mxCell id="CToXAPZR03ggELZEOqqd-53" value="" style="endArrow=none;html=1;rounded=0;entryX=0;entryY=0.5;entryDx=0;entryDy=0;" edge="1" parent="1" source="CToXAPZR03ggELZEOqqd-1" target="CToXAPZR03ggELZEOqqd-2">
          <mxGeometry width="50" height="50" relative="1" as="geometry">
            <mxPoint x="120" y="80" as="sourcePoint" />
            <mxPoint x="160" y="160" as="targetPoint" />
          </mxGeometry>
        </mxCell>
        <mxCell id="CToXAPZR03ggELZEOqqd-60" value="" style="endArrow=none;html=1;rounded=0;entryX=0;entryY=0.5;entryDx=0;entryDy=0;exitX=1;exitY=0.5;exitDx=0;exitDy=0;" edge="1" parent="1" source="CToXAPZR03ggELZEOqqd-2" target="CToXAPZR03ggELZEOqqd-3">
          <mxGeometry width="50" height="50" relative="1" as="geometry">
            <mxPoint x="159" y="80" as="sourcePoint" />
            <mxPoint x="169" y="80" as="targetPoint" />
          </mxGeometry>
        </mxCell>
        <mxCell id="CToXAPZR03ggELZEOqqd-61" value="" style="endArrow=none;html=1;rounded=0;" edge="1" parent="1" source="CToXAPZR03ggELZEOqqd-3" target="CToXAPZR03ggELZEOqqd-4">
          <mxGeometry width="50" height="50" relative="1" as="geometry">
            <mxPoint x="140" y="100" as="sourcePoint" />
            <mxPoint x="150" y="100" as="targetPoint" />
          </mxGeometry>
        </mxCell>
        <mxCell id="CToXAPZR03ggELZEOqqd-63" value="" style="endArrow=none;html=1;rounded=0;" edge="1" parent="1" source="CToXAPZR03ggELZEOqqd-4" target="CToXAPZR03ggELZEOqqd-5">
          <mxGeometry width="50" height="50" relative="1" as="geometry">
            <mxPoint x="380" y="230" as="sourcePoint" />
            <mxPoint x="430" y="180" as="targetPoint" />
          </mxGeometry>
        </mxCell>
        <mxCell id="CToXAPZR03ggELZEOqqd-64" value="" style="endArrow=none;html=1;rounded=0;" edge="1" parent="1" source="CToXAPZR03ggELZEOqqd-5" target="CToXAPZR03ggELZEOqqd-6">
          <mxGeometry width="50" height="50" relative="1" as="geometry">
            <mxPoint x="380" y="230" as="sourcePoint" />
            <mxPoint x="430" y="180" as="targetPoint" />
          </mxGeometry>
        </mxCell>
        <mxCell id="CToXAPZR03ggELZEOqqd-68" value="" style="endArrow=none;html=1;rounded=0;" edge="1" parent="1" source="CToXAPZR03ggELZEOqqd-7" target="CToXAPZR03ggELZEOqqd-36">
          <mxGeometry width="50" height="50" relative="1" as="geometry">
            <mxPoint x="380" y="230" as="sourcePoint" />
            <mxPoint x="430" y="180" as="targetPoint" />
          </mxGeometry>
        </mxCell>
        <mxCell id="CToXAPZR03ggELZEOqqd-69" value="" style="endArrow=none;html=1;rounded=0;" edge="1" parent="1" source="CToXAPZR03ggELZEOqqd-6" target="CToXAPZR03ggELZEOqqd-7">
          <mxGeometry width="50" height="50" relative="1" as="geometry">
            <mxPoint x="380" y="230" as="sourcePoint" />
            <mxPoint x="430" y="180" as="targetPoint" />
          </mxGeometry>
        </mxCell>
        <mxCell id="CToXAPZR03ggELZEOqqd-70" value="" style="whiteSpace=wrap;html=1;aspect=fixed;" vertex="1" parent="1">
          <mxGeometry x="-150" y="220" width="80" height="80" as="geometry" />
        </mxCell>
        <mxCell id="CToXAPZR03ggELZEOqqd-71" value="&#xa;&lt;span style=&quot;color: rgb(0, 0, 0); font-family: Helvetica; font-size: 12px; font-style: normal; font-variant-ligatures: normal; font-variant-caps: normal; font-weight: 400; letter-spacing: normal; orphans: 2; text-align: center; text-indent: 0px; text-transform: none; widows: 2; word-spacing: 0px; -webkit-text-stroke-width: 0px; background-color: rgb(251, 251, 251); text-decoration-thickness: initial; text-decoration-style: initial; text-decoration-color: initial; float: none; display: inline !important;&quot;&gt;dense&lt;/span&gt;&#xa;&#xa;" style="rounded=0;whiteSpace=wrap;html=1;" vertex="1" parent="1">
          <mxGeometry x="-30" y="220" width="30" height="80" as="geometry" />
        </mxCell>
        <mxCell id="CToXAPZR03ggELZEOqqd-72" value="&#xa;&lt;span style=&quot;color: rgb(0, 0, 0); font-family: Helvetica; font-size: 12px; font-style: normal; font-variant-ligatures: normal; font-variant-caps: normal; font-weight: 400; letter-spacing: normal; orphans: 2; text-align: center; text-indent: 0px; text-transform: none; widows: 2; word-spacing: 0px; -webkit-text-stroke-width: 0px; background-color: rgb(251, 251, 251); text-decoration-thickness: initial; text-decoration-style: initial; text-decoration-color: initial; float: none; display: inline !important;&quot;&gt;dense&lt;/span&gt;&#xa;&#xa;" style="rounded=0;whiteSpace=wrap;html=1;" vertex="1" parent="1">
          <mxGeometry x="40" y="220" width="30" height="80" as="geometry" />
        </mxCell>
        <mxCell id="CToXAPZR03ggELZEOqqd-73" value="&#xa;&lt;span style=&quot;color: rgb(0, 0, 0); font-family: Helvetica; font-size: 12px; font-style: normal; font-variant-ligatures: normal; font-variant-caps: normal; font-weight: 400; letter-spacing: normal; orphans: 2; text-align: center; text-indent: 0px; text-transform: none; widows: 2; word-spacing: 0px; -webkit-text-stroke-width: 0px; background-color: rgb(251, 251, 251); text-decoration-thickness: initial; text-decoration-style: initial; text-decoration-color: initial; float: none; display: inline !important;&quot;&gt;dense&lt;/span&gt;&#xa;&#xa;" style="rounded=0;whiteSpace=wrap;html=1;" vertex="1" parent="1">
          <mxGeometry x="100" y="220" width="30" height="80" as="geometry" />
        </mxCell>
        <mxCell id="CToXAPZR03ggELZEOqqd-74" value="&#xa;&lt;span style=&quot;color: rgb(0, 0, 0); font-family: Helvetica; font-size: 12px; font-style: normal; font-variant-ligatures: normal; font-variant-caps: normal; font-weight: 400; letter-spacing: normal; orphans: 2; text-align: center; text-indent: 0px; text-transform: none; widows: 2; word-spacing: 0px; -webkit-text-stroke-width: 0px; background-color: rgb(251, 251, 251); text-decoration-thickness: initial; text-decoration-style: initial; text-decoration-color: initial; float: none; display: inline !important;&quot;&gt;dense&lt;/span&gt;&#xa;&#xa;" style="rounded=0;whiteSpace=wrap;html=1;" vertex="1" parent="1">
          <mxGeometry x="160" y="220" width="30" height="80" as="geometry" />
        </mxCell>
        <mxCell id="CToXAPZR03ggELZEOqqd-75" value="&#xa;&lt;span style=&quot;color: rgb(0, 0, 0); font-family: Helvetica; font-size: 12px; font-style: normal; font-variant-ligatures: normal; font-variant-caps: normal; font-weight: 400; letter-spacing: normal; orphans: 2; text-align: center; text-indent: 0px; text-transform: none; widows: 2; word-spacing: 0px; -webkit-text-stroke-width: 0px; background-color: rgb(251, 251, 251); text-decoration-thickness: initial; text-decoration-style: initial; text-decoration-color: initial; float: none; display: inline !important;&quot;&gt;dense&lt;/span&gt;&#xa;&#xa;" style="rounded=0;whiteSpace=wrap;html=1;" vertex="1" parent="1">
          <mxGeometry x="220" y="220" width="30" height="80" as="geometry" />
        </mxCell>
        <mxCell id="CToXAPZR03ggELZEOqqd-76" value="&#xa;&lt;span style=&quot;color: rgb(0, 0, 0); font-family: Helvetica; font-size: 12px; font-style: normal; font-variant-ligatures: normal; font-variant-caps: normal; font-weight: 400; letter-spacing: normal; orphans: 2; text-align: center; text-indent: 0px; text-transform: none; widows: 2; word-spacing: 0px; -webkit-text-stroke-width: 0px; background-color: rgb(251, 251, 251); text-decoration-thickness: initial; text-decoration-style: initial; text-decoration-color: initial; float: none; display: inline !important;&quot;&gt;pooling&lt;/span&gt;&#xa;&#xa;" style="rounded=0;whiteSpace=wrap;html=1;" vertex="1" parent="1">
          <mxGeometry x="280" y="220" width="30" height="80" as="geometry" />
        </mxCell>
        <mxCell id="CToXAPZR03ggELZEOqqd-77" value="&#xa;&lt;span style=&quot;color: rgb(0, 0, 0); font-family: Helvetica; font-size: 12px; font-style: normal; font-variant-ligatures: normal; font-variant-caps: normal; font-weight: 400; letter-spacing: normal; orphans: 2; text-align: center; text-indent: 0px; text-transform: none; widows: 2; word-spacing: 0px; -webkit-text-stroke-width: 0px; background-color: rgb(251, 251, 251); text-decoration-thickness: initial; text-decoration-style: initial; text-decoration-color: initial; float: none; display: inline !important;&quot;&gt;A&lt;/span&gt;&#xa;&#xa;" style="rounded=0;whiteSpace=wrap;html=1;" vertex="1" parent="1">
          <mxGeometry x="380" y="220" width="30" height="80" as="geometry" />
        </mxCell>
        <mxCell id="CToXAPZR03ggELZEOqqd-78" value="" style="endArrow=none;html=1;rounded=0;entryX=0;entryY=0.5;entryDx=0;entryDy=0;" edge="1" parent="1" source="CToXAPZR03ggELZEOqqd-70" target="CToXAPZR03ggELZEOqqd-71">
          <mxGeometry width="50" height="50" relative="1" as="geometry">
            <mxPoint x="120" y="260" as="sourcePoint" />
            <mxPoint x="160" y="340" as="targetPoint" />
          </mxGeometry>
        </mxCell>
        <mxCell id="CToXAPZR03ggELZEOqqd-79" value="" style="endArrow=none;html=1;rounded=0;entryX=0;entryY=0.5;entryDx=0;entryDy=0;exitX=1;exitY=0.5;exitDx=0;exitDy=0;" edge="1" parent="1" source="CToXAPZR03ggELZEOqqd-71" target="CToXAPZR03ggELZEOqqd-72">
          <mxGeometry width="50" height="50" relative="1" as="geometry">
            <mxPoint x="159" y="260" as="sourcePoint" />
            <mxPoint x="169" y="260" as="targetPoint" />
          </mxGeometry>
        </mxCell>
        <mxCell id="CToXAPZR03ggELZEOqqd-80" value="" style="endArrow=none;html=1;rounded=0;" edge="1" parent="1" source="CToXAPZR03ggELZEOqqd-72" target="CToXAPZR03ggELZEOqqd-73">
          <mxGeometry width="50" height="50" relative="1" as="geometry">
            <mxPoint x="140" y="280" as="sourcePoint" />
            <mxPoint x="150" y="280" as="targetPoint" />
          </mxGeometry>
        </mxCell>
        <mxCell id="CToXAPZR03ggELZEOqqd-81" value="" style="endArrow=none;html=1;rounded=0;" edge="1" parent="1" source="CToXAPZR03ggELZEOqqd-73" target="CToXAPZR03ggELZEOqqd-74">
          <mxGeometry width="50" height="50" relative="1" as="geometry">
            <mxPoint x="380" y="410" as="sourcePoint" />
            <mxPoint x="430" y="360" as="targetPoint" />
          </mxGeometry>
        </mxCell>
        <mxCell id="CToXAPZR03ggELZEOqqd-82" value="" style="endArrow=none;html=1;rounded=0;" edge="1" parent="1" source="CToXAPZR03ggELZEOqqd-74" target="CToXAPZR03ggELZEOqqd-75">
          <mxGeometry width="50" height="50" relative="1" as="geometry">
            <mxPoint x="380" y="410" as="sourcePoint" />
            <mxPoint x="430" y="360" as="targetPoint" />
          </mxGeometry>
        </mxCell>
        <mxCell id="CToXAPZR03ggELZEOqqd-83" value="" style="endArrow=none;html=1;rounded=0;" edge="1" parent="1" source="CToXAPZR03ggELZEOqqd-76" target="CToXAPZR03ggELZEOqqd-77">
          <mxGeometry width="50" height="50" relative="1" as="geometry">
            <mxPoint x="380" y="410" as="sourcePoint" />
            <mxPoint x="430" y="360" as="targetPoint" />
          </mxGeometry>
        </mxCell>
        <mxCell id="CToXAPZR03ggELZEOqqd-84" value="" style="endArrow=none;html=1;rounded=0;" edge="1" parent="1" source="CToXAPZR03ggELZEOqqd-75" target="CToXAPZR03ggELZEOqqd-76">
          <mxGeometry width="50" height="50" relative="1" as="geometry">
            <mxPoint x="380" y="410" as="sourcePoint" />
            <mxPoint x="430" y="360" as="targetPoint" />
          </mxGeometry>
        </mxCell>
        <mxCell id="CToXAPZR03ggELZEOqqd-126" value="C" style="ellipse;whiteSpace=wrap;html=1;aspect=fixed;" vertex="1" parent="1">
          <mxGeometry x="500" y="245" width="30" height="30" as="geometry" />
        </mxCell>
        <mxCell id="CToXAPZR03ggELZEOqqd-127" value="" style="endArrow=none;html=1;rounded=0;" edge="1" parent="1" source="CToXAPZR03ggELZEOqqd-32">
          <mxGeometry width="50" height="50" relative="1" as="geometry">
            <mxPoint x="580" y="320" as="sourcePoint" />
            <mxPoint x="500" y="260" as="targetPoint" />
          </mxGeometry>
        </mxCell>
        <mxCell id="CToXAPZR03ggELZEOqqd-128" value="" style="endArrow=none;html=1;rounded=0;" edge="1" parent="1" source="CToXAPZR03ggELZEOqqd-126">
          <mxGeometry width="50" height="50" relative="1" as="geometry">
            <mxPoint x="580" y="320" as="sourcePoint" />
            <mxPoint x="540" y="260" as="targetPoint" />
          </mxGeometry>
        </mxCell>
        <mxCell id="CToXAPZR03ggELZEOqqd-129" value="up-conv" style="rounded=0;whiteSpace=wrap;html=1;" vertex="1" parent="1">
          <mxGeometry x="620" y="220" width="30" height="80" as="geometry" />
        </mxCell>
        <mxCell id="CToXAPZR03ggELZEOqqd-130" value="C" style="ellipse;whiteSpace=wrap;html=1;aspect=fixed;" vertex="1" parent="1">
          <mxGeometry x="580" y="245" width="30" height="30" as="geometry" />
        </mxCell>
        <mxCell id="CToXAPZR03ggELZEOqqd-131" value="" style="endArrow=none;html=1;rounded=0;" edge="1" parent="1">
          <mxGeometry width="50" height="50" relative="1" as="geometry">
            <mxPoint x="570" y="260" as="sourcePoint" />
            <mxPoint x="580" y="260" as="targetPoint" />
          </mxGeometry>
        </mxCell>
        <mxCell id="CToXAPZR03ggELZEOqqd-132" value="" style="endArrow=none;html=1;rounded=0;" edge="1" parent="1" source="CToXAPZR03ggELZEOqqd-130">
          <mxGeometry width="50" height="50" relative="1" as="geometry">
            <mxPoint x="660" y="320" as="sourcePoint" />
            <mxPoint x="620" y="260" as="targetPoint" />
          </mxGeometry>
        </mxCell>
        <mxCell id="CToXAPZR03ggELZEOqqd-133" value="up-conv" style="rounded=0;whiteSpace=wrap;html=1;" vertex="1" parent="1">
          <mxGeometry x="700" y="220" width="30" height="80" as="geometry" />
        </mxCell>
        <mxCell id="CToXAPZR03ggELZEOqqd-134" value="C" style="ellipse;whiteSpace=wrap;html=1;aspect=fixed;" vertex="1" parent="1">
          <mxGeometry x="660" y="245" width="30" height="30" as="geometry" />
        </mxCell>
        <mxCell id="CToXAPZR03ggELZEOqqd-135" value="" style="endArrow=none;html=1;rounded=0;" edge="1" parent="1">
          <mxGeometry width="50" height="50" relative="1" as="geometry">
            <mxPoint x="650" y="260" as="sourcePoint" />
            <mxPoint x="660" y="260" as="targetPoint" />
          </mxGeometry>
        </mxCell>
        <mxCell id="CToXAPZR03ggELZEOqqd-136" value="" style="endArrow=none;html=1;rounded=0;" edge="1" parent="1" source="CToXAPZR03ggELZEOqqd-134">
          <mxGeometry width="50" height="50" relative="1" as="geometry">
            <mxPoint x="740" y="320" as="sourcePoint" />
            <mxPoint x="700" y="260" as="targetPoint" />
          </mxGeometry>
        </mxCell>
        <mxCell id="CToXAPZR03ggELZEOqqd-137" value="up-conv" style="rounded=0;whiteSpace=wrap;html=1;" vertex="1" parent="1">
          <mxGeometry x="780" y="220" width="30" height="80" as="geometry" />
        </mxCell>
        <mxCell id="CToXAPZR03ggELZEOqqd-138" value="C" style="ellipse;whiteSpace=wrap;html=1;aspect=fixed;" vertex="1" parent="1">
          <mxGeometry x="740" y="245" width="30" height="30" as="geometry" />
        </mxCell>
        <mxCell id="CToXAPZR03ggELZEOqqd-139" value="" style="endArrow=none;html=1;rounded=0;" edge="1" parent="1">
          <mxGeometry width="50" height="50" relative="1" as="geometry">
            <mxPoint x="730" y="260" as="sourcePoint" />
            <mxPoint x="740" y="260" as="targetPoint" />
          </mxGeometry>
        </mxCell>
        <mxCell id="CToXAPZR03ggELZEOqqd-140" value="" style="endArrow=none;html=1;rounded=0;" edge="1" parent="1" source="CToXAPZR03ggELZEOqqd-138">
          <mxGeometry width="50" height="50" relative="1" as="geometry">
            <mxPoint x="820" y="320" as="sourcePoint" />
            <mxPoint x="780" y="260" as="targetPoint" />
          </mxGeometry>
        </mxCell>
        <mxCell id="CToXAPZR03ggELZEOqqd-141" value="C" style="ellipse;whiteSpace=wrap;html=1;aspect=fixed;" vertex="1" parent="1">
          <mxGeometry x="820" y="245" width="30" height="30" as="geometry" />
        </mxCell>
        <mxCell id="CToXAPZR03ggELZEOqqd-142" value="" style="endArrow=none;html=1;rounded=0;" edge="1" parent="1">
          <mxGeometry width="50" height="50" relative="1" as="geometry">
            <mxPoint x="810" y="260" as="sourcePoint" />
            <mxPoint x="820" y="260" as="targetPoint" />
          </mxGeometry>
        </mxCell>
        <mxCell id="CToXAPZR03ggELZEOqqd-143" value="" style="endArrow=none;html=1;rounded=0;" edge="1" parent="1" source="CToXAPZR03ggELZEOqqd-141">
          <mxGeometry width="50" height="50" relative="1" as="geometry">
            <mxPoint x="900" y="320" as="sourcePoint" />
            <mxPoint x="860" y="260" as="targetPoint" />
          </mxGeometry>
        </mxCell>
        <mxCell id="CToXAPZR03ggELZEOqqd-144" value="Basic3d" style="rounded=0;whiteSpace=wrap;html=1;" vertex="1" parent="1">
          <mxGeometry x="860" y="220" width="30" height="80" as="geometry" />
        </mxCell>
        <mxCell id="CToXAPZR03ggELZEOqqd-145" value="up-conv" style="rounded=0;whiteSpace=wrap;html=1;" vertex="1" parent="1">
          <mxGeometry x="540" y="40" width="30" height="80" as="geometry" />
        </mxCell>
        <mxCell id="CToXAPZR03ggELZEOqqd-146" value="" style="rounded=0;whiteSpace=wrap;html=1;" vertex="1" parent="1">
          <mxGeometry x="460" y="40" width="30" height="80" as="geometry" />
        </mxCell>
        <mxCell id="CToXAPZR03ggELZEOqqd-147" value="C" style="ellipse;whiteSpace=wrap;html=1;aspect=fixed;" vertex="1" parent="1">
          <mxGeometry x="500" y="65" width="30" height="30" as="geometry" />
        </mxCell>
        <mxCell id="CToXAPZR03ggELZEOqqd-148" value="" style="endArrow=none;html=1;rounded=0;" edge="1" parent="1" source="CToXAPZR03ggELZEOqqd-146">
          <mxGeometry width="50" height="50" relative="1" as="geometry">
            <mxPoint x="580" y="140" as="sourcePoint" />
            <mxPoint x="500" y="80" as="targetPoint" />
          </mxGeometry>
        </mxCell>
        <mxCell id="CToXAPZR03ggELZEOqqd-149" value="" style="endArrow=none;html=1;rounded=0;" edge="1" parent="1" source="CToXAPZR03ggELZEOqqd-147">
          <mxGeometry width="50" height="50" relative="1" as="geometry">
            <mxPoint x="580" y="140" as="sourcePoint" />
            <mxPoint x="540" y="80" as="targetPoint" />
          </mxGeometry>
        </mxCell>
        <mxCell id="CToXAPZR03ggELZEOqqd-150" value="up-conv" style="rounded=0;whiteSpace=wrap;html=1;" vertex="1" parent="1">
          <mxGeometry x="620" y="40" width="30" height="80" as="geometry" />
        </mxCell>
        <mxCell id="CToXAPZR03ggELZEOqqd-151" value="C" style="ellipse;whiteSpace=wrap;html=1;aspect=fixed;" vertex="1" parent="1">
          <mxGeometry x="580" y="65" width="30" height="30" as="geometry" />
        </mxCell>
        <mxCell id="CToXAPZR03ggELZEOqqd-152" value="" style="endArrow=none;html=1;rounded=0;" edge="1" parent="1">
          <mxGeometry width="50" height="50" relative="1" as="geometry">
            <mxPoint x="570" y="80" as="sourcePoint" />
            <mxPoint x="580" y="80" as="targetPoint" />
          </mxGeometry>
        </mxCell>
        <mxCell id="CToXAPZR03ggELZEOqqd-153" value="" style="endArrow=none;html=1;rounded=0;" edge="1" parent="1" source="CToXAPZR03ggELZEOqqd-151">
          <mxGeometry width="50" height="50" relative="1" as="geometry">
            <mxPoint x="660" y="140" as="sourcePoint" />
            <mxPoint x="620" y="80" as="targetPoint" />
          </mxGeometry>
        </mxCell>
        <mxCell id="CToXAPZR03ggELZEOqqd-154" value="up-conv" style="rounded=0;whiteSpace=wrap;html=1;" vertex="1" parent="1">
          <mxGeometry x="700" y="40" width="30" height="80" as="geometry" />
        </mxCell>
        <mxCell id="CToXAPZR03ggELZEOqqd-155" value="C" style="ellipse;whiteSpace=wrap;html=1;aspect=fixed;" vertex="1" parent="1">
          <mxGeometry x="660" y="65" width="30" height="30" as="geometry" />
        </mxCell>
        <mxCell id="CToXAPZR03ggELZEOqqd-156" value="" style="endArrow=none;html=1;rounded=0;" edge="1" parent="1">
          <mxGeometry width="50" height="50" relative="1" as="geometry">
            <mxPoint x="650" y="80" as="sourcePoint" />
            <mxPoint x="660" y="80" as="targetPoint" />
          </mxGeometry>
        </mxCell>
        <mxCell id="CToXAPZR03ggELZEOqqd-157" value="" style="endArrow=none;html=1;rounded=0;" edge="1" parent="1" source="CToXAPZR03ggELZEOqqd-155">
          <mxGeometry width="50" height="50" relative="1" as="geometry">
            <mxPoint x="740" y="140" as="sourcePoint" />
            <mxPoint x="700" y="80" as="targetPoint" />
          </mxGeometry>
        </mxCell>
        <mxCell id="CToXAPZR03ggELZEOqqd-158" value="up-conv" style="rounded=0;whiteSpace=wrap;html=1;" vertex="1" parent="1">
          <mxGeometry x="780" y="40" width="30" height="80" as="geometry" />
        </mxCell>
        <mxCell id="CToXAPZR03ggELZEOqqd-159" value="C" style="ellipse;whiteSpace=wrap;html=1;aspect=fixed;" vertex="1" parent="1">
          <mxGeometry x="740" y="65" width="30" height="30" as="geometry" />
        </mxCell>
        <mxCell id="CToXAPZR03ggELZEOqqd-160" value="" style="endArrow=none;html=1;rounded=0;" edge="1" parent="1">
          <mxGeometry width="50" height="50" relative="1" as="geometry">
            <mxPoint x="730" y="80" as="sourcePoint" />
            <mxPoint x="740" y="80" as="targetPoint" />
          </mxGeometry>
        </mxCell>
        <mxCell id="CToXAPZR03ggELZEOqqd-161" value="" style="endArrow=none;html=1;rounded=0;" edge="1" parent="1" source="CToXAPZR03ggELZEOqqd-159">
          <mxGeometry width="50" height="50" relative="1" as="geometry">
            <mxPoint x="820" y="140" as="sourcePoint" />
            <mxPoint x="780" y="80" as="targetPoint" />
          </mxGeometry>
        </mxCell>
        <mxCell id="CToXAPZR03ggELZEOqqd-162" value="C" style="ellipse;whiteSpace=wrap;html=1;aspect=fixed;" vertex="1" parent="1">
          <mxGeometry x="820" y="65" width="30" height="30" as="geometry" />
        </mxCell>
        <mxCell id="CToXAPZR03ggELZEOqqd-163" value="" style="endArrow=none;html=1;rounded=0;" edge="1" parent="1">
          <mxGeometry width="50" height="50" relative="1" as="geometry">
            <mxPoint x="810" y="80" as="sourcePoint" />
            <mxPoint x="820" y="80" as="targetPoint" />
          </mxGeometry>
        </mxCell>
        <mxCell id="CToXAPZR03ggELZEOqqd-164" value="" style="endArrow=none;html=1;rounded=0;" edge="1" parent="1" source="CToXAPZR03ggELZEOqqd-162">
          <mxGeometry width="50" height="50" relative="1" as="geometry">
            <mxPoint x="900" y="140" as="sourcePoint" />
            <mxPoint x="860" y="80" as="targetPoint" />
          </mxGeometry>
        </mxCell>
        <mxCell id="CToXAPZR03ggELZEOqqd-165" value="Basic3d" style="rounded=0;whiteSpace=wrap;html=1;" vertex="1" parent="1">
          <mxGeometry x="860" y="40" width="30" height="80" as="geometry" />
        </mxCell>
        <mxCell id="CToXAPZR03ggELZEOqqd-166" value="up-conv" style="rounded=0;whiteSpace=wrap;html=1;" vertex="1" parent="1">
          <mxGeometry x="540" y="130" width="30" height="80" as="geometry" />
        </mxCell>
        <mxCell id="CToXAPZR03ggELZEOqqd-167" value="" style="rounded=0;whiteSpace=wrap;html=1;" vertex="1" parent="1">
          <mxGeometry x="460" y="130" width="30" height="80" as="geometry" />
        </mxCell>
        <mxCell id="CToXAPZR03ggELZEOqqd-168" value="" style="ellipse;whiteSpace=wrap;html=1;aspect=fixed;" vertex="1" parent="1">
          <mxGeometry x="500" y="155" width="30" height="30" as="geometry" />
        </mxCell>
        <mxCell id="CToXAPZR03ggELZEOqqd-169" value="" style="endArrow=none;html=1;rounded=0;" edge="1" parent="1" source="CToXAPZR03ggELZEOqqd-167">
          <mxGeometry width="50" height="50" relative="1" as="geometry">
            <mxPoint x="580" y="230" as="sourcePoint" />
            <mxPoint x="500" y="170" as="targetPoint" />
          </mxGeometry>
        </mxCell>
        <mxCell id="CToXAPZR03ggELZEOqqd-170" value="" style="endArrow=none;html=1;rounded=0;" edge="1" parent="1" source="CToXAPZR03ggELZEOqqd-168">
          <mxGeometry width="50" height="50" relative="1" as="geometry">
            <mxPoint x="580" y="230" as="sourcePoint" />
            <mxPoint x="540" y="170" as="targetPoint" />
          </mxGeometry>
        </mxCell>
        <mxCell id="CToXAPZR03ggELZEOqqd-171" value="up-conv" style="rounded=0;whiteSpace=wrap;html=1;" vertex="1" parent="1">
          <mxGeometry x="620" y="130" width="30" height="80" as="geometry" />
        </mxCell>
        <mxCell id="CToXAPZR03ggELZEOqqd-172" value="" style="ellipse;whiteSpace=wrap;html=1;aspect=fixed;" vertex="1" parent="1">
          <mxGeometry x="580" y="155" width="30" height="30" as="geometry" />
        </mxCell>
        <mxCell id="CToXAPZR03ggELZEOqqd-173" value="" style="endArrow=none;html=1;rounded=0;" edge="1" parent="1">
          <mxGeometry width="50" height="50" relative="1" as="geometry">
            <mxPoint x="570" y="170" as="sourcePoint" />
            <mxPoint x="580" y="170" as="targetPoint" />
          </mxGeometry>
        </mxCell>
        <mxCell id="CToXAPZR03ggELZEOqqd-174" value="" style="endArrow=none;html=1;rounded=0;" edge="1" parent="1" source="CToXAPZR03ggELZEOqqd-172">
          <mxGeometry width="50" height="50" relative="1" as="geometry">
            <mxPoint x="660" y="230" as="sourcePoint" />
            <mxPoint x="620" y="170" as="targetPoint" />
          </mxGeometry>
        </mxCell>
        <mxCell id="CToXAPZR03ggELZEOqqd-175" value="up-conv" style="rounded=0;whiteSpace=wrap;html=1;" vertex="1" parent="1">
          <mxGeometry x="700" y="130" width="30" height="80" as="geometry" />
        </mxCell>
        <mxCell id="CToXAPZR03ggELZEOqqd-176" value="" style="ellipse;whiteSpace=wrap;html=1;aspect=fixed;" vertex="1" parent="1">
          <mxGeometry x="660" y="155" width="30" height="30" as="geometry" />
        </mxCell>
        <mxCell id="CToXAPZR03ggELZEOqqd-177" value="" style="endArrow=none;html=1;rounded=0;" edge="1" parent="1">
          <mxGeometry width="50" height="50" relative="1" as="geometry">
            <mxPoint x="650" y="170" as="sourcePoint" />
            <mxPoint x="660" y="170" as="targetPoint" />
          </mxGeometry>
        </mxCell>
        <mxCell id="CToXAPZR03ggELZEOqqd-178" value="" style="endArrow=none;html=1;rounded=0;" edge="1" parent="1" source="CToXAPZR03ggELZEOqqd-176">
          <mxGeometry width="50" height="50" relative="1" as="geometry">
            <mxPoint x="740" y="230" as="sourcePoint" />
            <mxPoint x="700" y="170" as="targetPoint" />
          </mxGeometry>
        </mxCell>
        <mxCell id="CToXAPZR03ggELZEOqqd-179" value="up-conv" style="rounded=0;whiteSpace=wrap;html=1;" vertex="1" parent="1">
          <mxGeometry x="780" y="130" width="30" height="80" as="geometry" />
        </mxCell>
        <mxCell id="CToXAPZR03ggELZEOqqd-180" value="" style="ellipse;whiteSpace=wrap;html=1;aspect=fixed;" vertex="1" parent="1">
          <mxGeometry x="740" y="155" width="30" height="30" as="geometry" />
        </mxCell>
        <mxCell id="CToXAPZR03ggELZEOqqd-181" value="" style="endArrow=none;html=1;rounded=0;" edge="1" parent="1">
          <mxGeometry width="50" height="50" relative="1" as="geometry">
            <mxPoint x="730" y="170" as="sourcePoint" />
            <mxPoint x="740" y="170" as="targetPoint" />
          </mxGeometry>
        </mxCell>
        <mxCell id="CToXAPZR03ggELZEOqqd-182" value="" style="endArrow=none;html=1;rounded=0;" edge="1" parent="1" source="CToXAPZR03ggELZEOqqd-180">
          <mxGeometry width="50" height="50" relative="1" as="geometry">
            <mxPoint x="820" y="230" as="sourcePoint" />
            <mxPoint x="780" y="170" as="targetPoint" />
          </mxGeometry>
        </mxCell>
        <mxCell id="CToXAPZR03ggELZEOqqd-183" value="" style="ellipse;whiteSpace=wrap;html=1;aspect=fixed;" vertex="1" parent="1">
          <mxGeometry x="820" y="155" width="30" height="30" as="geometry" />
        </mxCell>
        <mxCell id="CToXAPZR03ggELZEOqqd-184" value="" style="endArrow=none;html=1;rounded=0;" edge="1" parent="1">
          <mxGeometry width="50" height="50" relative="1" as="geometry">
            <mxPoint x="810" y="170" as="sourcePoint" />
            <mxPoint x="820" y="170" as="targetPoint" />
          </mxGeometry>
        </mxCell>
        <mxCell id="CToXAPZR03ggELZEOqqd-185" value="" style="endArrow=none;html=1;rounded=0;" edge="1" parent="1" source="CToXAPZR03ggELZEOqqd-183">
          <mxGeometry width="50" height="50" relative="1" as="geometry">
            <mxPoint x="900" y="230" as="sourcePoint" />
            <mxPoint x="860" y="170" as="targetPoint" />
          </mxGeometry>
        </mxCell>
        <mxCell id="CToXAPZR03ggELZEOqqd-186" value="Basic3d" style="rounded=0;whiteSpace=wrap;html=1;" vertex="1" parent="1">
          <mxGeometry x="860" y="130" width="30" height="80" as="geometry" />
        </mxCell>
        <mxCell id="CToXAPZR03ggELZEOqqd-189" value="B" style="rounded=0;whiteSpace=wrap;html=1;" vertex="1" parent="1">
          <mxGeometry x="390" y="-100" width="36" height="90" as="geometry" />
        </mxCell>
        <mxCell id="CToXAPZR03ggELZEOqqd-190" value="" style="endArrow=none;html=1;rounded=0;" edge="1" parent="1" target="CToXAPZR03ggELZEOqqd-189">
          <mxGeometry width="50" height="50" relative="1" as="geometry">
            <mxPoint x="20" y="80" as="sourcePoint" />
            <mxPoint x="260" y="380" as="targetPoint" />
            <Array as="points">
              <mxPoint x="20" y="-52" />
            </Array>
          </mxGeometry>
        </mxCell>
        <mxCell id="CToXAPZR03ggELZEOqqd-192" value="" style="endArrow=none;html=1;rounded=0;" edge="1" parent="1" target="CToXAPZR03ggELZEOqqd-189">
          <mxGeometry width="50" height="50" relative="1" as="geometry">
            <mxPoint x="90" y="80" as="sourcePoint" />
            <mxPoint x="330" y="-30" as="targetPoint" />
            <Array as="points">
              <mxPoint x="90" y="-35" />
            </Array>
          </mxGeometry>
        </mxCell>
        <mxCell id="CToXAPZR03ggELZEOqqd-194" value="" style="endArrow=none;html=1;rounded=0;" edge="1" parent="1" target="CToXAPZR03ggELZEOqqd-189">
          <mxGeometry width="50" height="50" relative="1" as="geometry">
            <mxPoint x="140" y="80" as="sourcePoint" />
            <mxPoint x="330" y="-20" as="targetPoint" />
            <Array as="points">
              <mxPoint x="140" y="-17" />
            </Array>
          </mxGeometry>
        </mxCell>
        <mxCell id="CToXAPZR03ggELZEOqqd-195" value="" style="endArrow=none;html=1;rounded=0;" edge="1" parent="1" target="CToXAPZR03ggELZEOqqd-189">
          <mxGeometry width="50" height="50" relative="1" as="geometry">
            <mxPoint x="210" y="80" as="sourcePoint" />
            <mxPoint x="430" y="-10" as="targetPoint" />
            <Array as="points">
              <mxPoint x="210" y="-10" />
            </Array>
          </mxGeometry>
        </mxCell>
        <mxCell id="CToXAPZR03ggELZEOqqd-198" value="" style="endArrow=classic;html=1;rounded=0;" edge="1" parent="1" source="CToXAPZR03ggELZEOqqd-189" target="CToXAPZR03ggELZEOqqd-147">
          <mxGeometry width="50" height="50" relative="1" as="geometry">
            <mxPoint x="360" y="170" as="sourcePoint" />
            <mxPoint x="410" y="120" as="targetPoint" />
            <Array as="points">
              <mxPoint x="515" y="-10" />
            </Array>
          </mxGeometry>
        </mxCell>
        <mxCell id="CToXAPZR03ggELZEOqqd-199" value="" style="endArrow=classic;html=1;rounded=0;" edge="1" parent="1" source="CToXAPZR03ggELZEOqqd-189" target="CToXAPZR03ggELZEOqqd-151">
          <mxGeometry width="50" height="50" relative="1" as="geometry">
            <mxPoint x="436" y="-37" as="sourcePoint" />
            <mxPoint x="525" y="75" as="targetPoint" />
            <Array as="points">
              <mxPoint x="595" y="-20" />
            </Array>
          </mxGeometry>
        </mxCell>
        <mxCell id="CToXAPZR03ggELZEOqqd-200" value="" style="endArrow=classic;html=1;rounded=0;entryX=0.5;entryY=0;entryDx=0;entryDy=0;" edge="1" parent="1" source="CToXAPZR03ggELZEOqqd-189" target="CToXAPZR03ggELZEOqqd-155">
          <mxGeometry width="50" height="50" relative="1" as="geometry">
            <mxPoint x="360" y="170" as="sourcePoint" />
            <mxPoint x="410" y="120" as="targetPoint" />
            <Array as="points">
              <mxPoint x="675" y="-30" />
            </Array>
          </mxGeometry>
        </mxCell>
        <mxCell id="CToXAPZR03ggELZEOqqd-201" value="" style="endArrow=classic;html=1;rounded=0;" edge="1" parent="1" source="CToXAPZR03ggELZEOqqd-189" target="CToXAPZR03ggELZEOqqd-159">
          <mxGeometry width="50" height="50" relative="1" as="geometry">
            <mxPoint x="446" y="-27" as="sourcePoint" />
            <mxPoint x="535" y="85" as="targetPoint" />
            <Array as="points">
              <mxPoint x="755" y="-40" />
            </Array>
          </mxGeometry>
        </mxCell>
        <mxCell id="CToXAPZR03ggELZEOqqd-202" value="" style="endArrow=classic;html=1;rounded=0;" edge="1" parent="1" source="CToXAPZR03ggELZEOqqd-189" target="CToXAPZR03ggELZEOqqd-162">
          <mxGeometry width="50" height="50" relative="1" as="geometry">
            <mxPoint x="456" y="-17" as="sourcePoint" />
            <mxPoint x="545" y="95" as="targetPoint" />
            <Array as="points">
              <mxPoint x="835" y="-50" />
            </Array>
          </mxGeometry>
        </mxCell>
        <mxCell id="CToXAPZR03ggELZEOqqd-203" value="B" style="rounded=0;whiteSpace=wrap;html=1;direction=east;flipV=1;" vertex="1" parent="1">
          <mxGeometry x="390" y="414.99" width="36" height="90" as="geometry" />
        </mxCell>
        <mxCell id="CToXAPZR03ggELZEOqqd-204" value="" style="endArrow=none;html=1;rounded=0;" edge="1" parent="1" target="CToXAPZR03ggELZEOqqd-203">
          <mxGeometry width="50" height="50" relative="1" as="geometry">
            <mxPoint x="21.5" y="259.99645658412214" as="sourcePoint" />
            <mxPoint x="261.5" y="-40.00354341587787" as="targetPoint" />
            <Array as="points">
              <mxPoint x="21.5" y="391.99645658412214" />
            </Array>
          </mxGeometry>
        </mxCell>
        <mxCell id="CToXAPZR03ggELZEOqqd-205" value="" style="endArrow=none;html=1;rounded=0;" edge="1" parent="1" target="CToXAPZR03ggELZEOqqd-203">
          <mxGeometry width="50" height="50" relative="1" as="geometry">
            <mxPoint x="91.5" y="260.05407974368086" as="sourcePoint" />
            <mxPoint x="331.5" y="370.05407974368086" as="targetPoint" />
            <Array as="points">
              <mxPoint x="91.5" y="375.05407974368086" />
            </Array>
          </mxGeometry>
        </mxCell>
        <mxCell id="CToXAPZR03ggELZEOqqd-206" value="" style="endArrow=none;html=1;rounded=0;" edge="1" parent="1" target="CToXAPZR03ggELZEOqqd-203">
          <mxGeometry width="50" height="50" relative="1" as="geometry">
            <mxPoint x="141.5" y="260.16141902428194" as="sourcePoint" />
            <mxPoint x="331.5" y="360.16141902428194" as="targetPoint" />
            <Array as="points">
              <mxPoint x="141.5" y="357.16141902428194" />
            </Array>
          </mxGeometry>
        </mxCell>
        <mxCell id="CToXAPZR03ggELZEOqqd-207" value="" style="endArrow=none;html=1;rounded=0;" edge="1" parent="1" target="CToXAPZR03ggELZEOqqd-203">
          <mxGeometry width="50" height="50" relative="1" as="geometry">
            <mxPoint x="211.5" y="260.361900826447" as="sourcePoint" />
            <mxPoint x="431.5" y="350.361900826447" as="targetPoint" />
            <Array as="points">
              <mxPoint x="211.5" y="350.361900826447" />
            </Array>
          </mxGeometry>
        </mxCell>
        <mxCell id="CToXAPZR03ggELZEOqqd-208" value="" style="endArrow=classic;html=1;rounded=0;" edge="1" parent="1" source="CToXAPZR03ggELZEOqqd-203" target="CToXAPZR03ggELZEOqqd-126">
          <mxGeometry width="50" height="50" relative="1" as="geometry">
            <mxPoint x="361.5" y="156.26347366582308" as="sourcePoint" />
            <mxPoint x="510" y="280" as="targetPoint" />
            <Array as="points">
              <mxPoint x="515" y="336" />
            </Array>
          </mxGeometry>
        </mxCell>
        <mxCell id="CToXAPZR03ggELZEOqqd-209" value="" style="endArrow=classic;html=1;rounded=0;" edge="1" parent="1" source="CToXAPZR03ggELZEOqqd-203" target="CToXAPZR03ggELZEOqqd-130">
          <mxGeometry width="50" height="50" relative="1" as="geometry">
            <mxPoint x="437.5" y="362.3142872258288" as="sourcePoint" />
            <mxPoint x="590" y="310" as="targetPoint" />
            <Array as="points">
              <mxPoint x="595" y="340" />
            </Array>
          </mxGeometry>
        </mxCell>
        <mxCell id="CToXAPZR03ggELZEOqqd-210" value="" style="endArrow=classic;html=1;rounded=0;" edge="1" parent="1" source="CToXAPZR03ggELZEOqqd-203" target="CToXAPZR03ggELZEOqqd-134">
          <mxGeometry width="50" height="50" relative="1" as="geometry">
            <mxPoint x="361.5" y="155.10362201742214" as="sourcePoint" />
            <mxPoint x="680" y="300" as="targetPoint" />
            <Array as="points">
              <mxPoint x="675" y="350" />
            </Array>
          </mxGeometry>
        </mxCell>
        <mxCell id="CToXAPZR03ggELZEOqqd-211" value="" style="endArrow=classic;html=1;rounded=0;" edge="1" parent="1" source="CToXAPZR03ggELZEOqqd-203" target="CToXAPZR03ggELZEOqqd-138">
          <mxGeometry width="50" height="50" relative="1" as="geometry">
            <mxPoint x="447.5" y="352.03036243138035" as="sourcePoint" />
            <mxPoint x="750" y="310" as="targetPoint" />
            <Array as="points">
              <mxPoint x="755" y="365" />
            </Array>
          </mxGeometry>
        </mxCell>
        <mxCell id="CToXAPZR03ggELZEOqqd-212" value="" style="endArrow=classic;html=1;rounded=0;" edge="1" parent="1" source="CToXAPZR03ggELZEOqqd-203" target="CToXAPZR03ggELZEOqqd-141">
          <mxGeometry width="50" height="50" relative="1" as="geometry">
            <mxPoint x="457.5" y="341.99888503748775" as="sourcePoint" />
            <mxPoint x="830" y="300" as="targetPoint" />
            <Array as="points">
              <mxPoint x="835" y="375" />
            </Array>
          </mxGeometry>
        </mxCell>
      </root>
    </mxGraphModel>
  </diagram>
</mxfile>
